<svg width="264" height="200" viewBox="0 0 264 200" fill="none" xmlns="http://www.w3.org/2000/svg">
<g clip-path="url(#clip0_21_11)">
<path opacity="0.1" d="M45.0616 29.4093C43.649 31.1036 43.105 33.4858 42.4966 35.7254C37.5986 53.7742 25.5289 68.2918 11.7836 78.6615C5.96266 83.054 -1.12398 88.9446 0.149501 96.8199C0.835222 101.049 3.84363 104.163 6.07867 107.607C10.7679 114.82 12.2888 124.624 10.0538 133.259C7.51198 143.084 0.407291 152.251 2.60624 162.185C3.96221 168.299 8.56634 172.651 12.9926 176.391C19.8979 182.223 27.0232 187.685 34.3685 192.779C39.2923 196.193 44.5306 199.516 50.269 199.949C55.3217 200.331 60.2712 198.433 65.0687 196.56C69.2604 194.922 73.5577 193.217 76.9425 189.936C79.1518 187.793 80.9125 185.029 83.3666 183.276C89.1308 179.158 96.5345 181.767 103.144 183.53C118.741 187.668 135.432 186.157 150.273 179.265C173.039 168.692 190.391 146.487 212.659 134.574C222.233 129.45 232.648 126.27 241.513 119.671C246.508 115.914 250.8 111.324 254.196 106.107C260.899 95.8874 264.523 82.8578 263.477 70.1033C262.43 57.3489 256.565 45.0581 247.354 37.8579C237.494 30.1507 225.04 28.7112 213.821 24.0843C202.241 19.2995 191.935 11.0802 180.466 5.95647C171.179 1.81713 161.073 -0.214448 150.888 0.0108434C140.704 0.236135 130.699 2.71258 121.61 7.25841C109.12 13.5006 96.4649 28.064 82.5546 29.1698C72.6452 29.9341 52.8005 20.1301 45.0616 29.4093Z" fill="#379237"/>
<path d="M223.795 88.4303C223.795 88.4303 220.042 75.8312 224.499 66.5597C226.395 62.6821 226.966 58.3013 226.128 54.0753C225.714 52.072 225.115 50.1105 224.339 48.2152" stroke="#535461" stroke-width="2" stroke-miterlimit="10"/>
<path d="M227.126 42.3578C227.126 43.9018 224.29 48.3783 224.29 48.3783C224.29 48.3783 221.454 43.9018 221.454 42.3578C221.426 41.9734 221.477 41.5872 221.606 41.2234C221.736 40.8597 221.939 40.5262 222.205 40.2437C222.47 39.9613 222.791 39.736 223.149 39.5819C223.506 39.4278 223.892 39.3483 224.282 39.3483C224.672 39.3483 225.058 39.4278 225.416 39.5819C225.773 39.736 226.095 39.9613 226.36 40.2437C226.626 40.5262 226.829 40.8597 226.958 41.2234C227.087 41.5872 227.139 41.9734 227.11 42.3578H227.126Z" fill="#379237"/>
<path d="M231.789 50.9083C230.941 52.2052 226.095 54.4447 226.095 54.4447C226.095 54.4447 226.182 49.1681 227.03 47.8713C227.462 47.3045 228.095 46.9204 228.801 46.7965C229.508 46.6726 230.236 46.8181 230.838 47.2036C231.44 47.5892 231.872 48.1862 232.047 48.8742C232.222 49.5621 232.126 50.29 231.779 50.9109L231.789 50.9083Z" fill="#379237"/>
<path d="M231.586 65.5252C230.191 66.2208 224.883 65.7393 224.883 65.7393C224.883 65.7393 227.654 61.227 229.049 60.5315C229.71 60.2602 230.451 60.2461 231.122 60.4921C231.793 60.7381 232.346 61.226 232.668 61.8579C232.99 62.4897 233.059 63.2186 232.86 63.8984C232.661 64.5782 232.21 65.1584 231.596 65.5227L231.586 65.5252Z" fill="#379237"/>
<path d="M228.912 76.5599C227.657 77.4771 222.331 77.8924 222.331 77.8924C222.331 77.8924 224.29 72.9827 225.548 72.063C226.153 71.6994 226.875 71.5729 227.57 71.7085C228.265 71.844 228.883 72.2318 229.303 72.7954C229.724 73.359 229.915 74.0577 229.84 74.7539C229.766 75.4501 229.43 76.0935 228.899 76.5574L228.912 76.5599Z" fill="#379237"/>
<path d="M220.165 54.7428C221.287 55.818 226.507 56.9339 226.507 56.9339C226.507 56.9339 225.218 51.8102 224.107 50.7325C223.848 50.4453 223.531 50.2139 223.178 50.0528C222.824 49.8917 222.441 49.8044 222.051 49.7962C221.662 49.788 221.275 49.8592 220.915 50.0053C220.554 50.1514 220.228 50.3693 219.957 50.6454C219.686 50.9215 219.475 51.2499 219.337 51.61C219.2 51.9702 219.139 52.3545 219.159 52.7389C219.178 53.1234 219.278 53.4997 219.451 53.8444C219.624 54.1892 219.867 54.495 220.165 54.7428Z" fill="#379237"/>
<path d="M217.203 67.6756C218.598 68.3712 223.906 67.8896 223.906 67.8896C223.906 67.8896 221.135 63.3774 219.74 62.6819C219.079 62.4105 218.338 62.3965 217.667 62.6425C216.996 62.8885 216.443 63.3764 216.121 64.0082C215.798 64.64 215.73 65.369 215.929 66.0488C216.128 66.7286 216.579 67.3088 217.193 67.6731L217.203 67.6756Z" fill="#379237"/>
<path d="M216.069 80.6365C217.325 81.5537 222.651 81.969 222.651 81.969C222.651 81.969 220.691 77.0593 219.433 76.1395C219.138 75.8818 218.793 75.6875 218.418 75.5691C218.043 75.4507 217.647 75.4108 217.255 75.4518C216.864 75.4929 216.485 75.6141 216.144 75.8076C215.802 76.0012 215.505 76.2629 215.272 76.5761C215.038 76.8893 214.873 77.2471 214.787 77.6268C214.701 78.0065 214.696 78.3997 214.773 78.7814C214.849 79.1631 215.005 79.5249 215.23 79.8439C215.455 80.1628 215.746 80.4319 216.082 80.6339L216.069 80.6365Z" fill="#379237"/>
<path opacity="0.1" d="M227.126 42.3578C227.126 43.9018 224.29 48.3783 224.29 48.3783C224.29 48.3783 221.454 43.9018 221.454 42.3578C221.426 41.9734 221.477 41.5872 221.606 41.2234C221.736 40.8597 221.939 40.5262 222.205 40.2437C222.47 39.9613 222.791 39.736 223.149 39.5819C223.506 39.4278 223.892 39.3483 224.282 39.3483C224.672 39.3483 225.058 39.4278 225.416 39.5819C225.773 39.736 226.095 39.9613 226.36 40.2437C226.626 40.5262 226.829 40.8597 226.958 41.2234C227.087 41.5872 227.139 41.9734 227.11 42.3578H227.126Z" fill="#379237"/>
<path opacity="0.1" d="M231.789 50.9083C230.941 52.2052 226.095 54.4447 226.095 54.4447C226.095 54.4447 226.182 49.1681 227.03 47.8713C227.462 47.3045 228.095 46.9204 228.801 46.7965C229.508 46.6726 230.236 46.8181 230.838 47.2036C231.44 47.5892 231.872 48.1862 232.047 48.8742C232.222 49.5621 232.126 50.29 231.779 50.9109L231.789 50.9083Z" fill="#379237"/>
<path opacity="0.1" d="M231.586 65.5252C230.191 66.2208 224.883 65.7393 224.883 65.7393C224.883 65.7393 227.654 61.227 229.049 60.5315C229.71 60.2602 230.451 60.2461 231.122 60.4921C231.793 60.7381 232.346 61.226 232.668 61.8579C232.99 62.4897 233.059 63.2186 232.86 63.8984C232.661 64.5782 232.21 65.1584 231.596 65.5227L231.586 65.5252Z" fill="#379237"/>
<path opacity="0.1" d="M228.912 76.5599C227.657 77.4771 222.331 77.8924 222.331 77.8924C222.331 77.8924 224.29 72.9827 225.548 72.063C226.153 71.6994 226.875 71.5729 227.57 71.7085C228.265 71.844 228.883 72.2318 229.303 72.7954C229.724 73.359 229.915 74.0577 229.84 74.7539C229.766 75.4501 229.43 76.0935 228.899 76.5574L228.912 76.5599Z" fill="#379237"/>
<path opacity="0.1" d="M220.165 54.7428C221.287 55.818 226.507 56.9339 226.507 56.9339C226.507 56.9339 225.218 51.8102 224.107 50.7325C223.848 50.4453 223.531 50.2139 223.178 50.0528C222.824 49.8917 222.441 49.8044 222.051 49.7962C221.662 49.788 221.275 49.8592 220.915 50.0053C220.554 50.1514 220.228 50.3693 219.957 50.6454C219.686 50.9215 219.475 51.2499 219.337 51.61C219.2 51.9702 219.139 52.3545 219.159 52.7389C219.178 53.1234 219.278 53.4997 219.451 53.8444C219.624 54.1892 219.867 54.495 220.165 54.7428Z" fill="#379237"/>
<path opacity="0.1" d="M217.203 67.6756C218.598 68.3712 223.906 67.8896 223.906 67.8896C223.906 67.8896 221.135 63.3774 219.74 62.6819C219.079 62.4105 218.338 62.3965 217.667 62.6425C216.996 62.8885 216.443 63.3764 216.121 64.0082C215.798 64.64 215.73 65.369 215.929 66.0488C216.128 66.7286 216.579 67.3088 217.193 67.6731L217.203 67.6756Z" fill="#379237"/>
<path opacity="0.1" d="M216.069 80.6365C217.325 81.5537 222.651 81.969 222.651 81.969C222.651 81.969 220.691 77.0593 219.433 76.1395C219.138 75.8818 218.793 75.6875 218.418 75.5691C218.043 75.4507 217.647 75.4108 217.255 75.4518C216.864 75.4929 216.485 75.6141 216.144 75.8076C215.802 76.0012 215.505 76.2629 215.272 76.5761C215.038 76.8893 214.873 77.2471 214.787 77.6268C214.701 78.0065 214.696 78.3997 214.773 78.7814C214.849 79.1631 215.005 79.5249 215.23 79.8439C215.455 80.1628 215.746 80.4319 216.082 80.6339L216.069 80.6365Z" fill="#379237"/>
<path d="M239.52 108.558C239.52 108.558 235.767 95.9591 240.224 86.6876C242.12 82.81 242.691 78.4292 241.853 74.2032C241.439 72.1999 240.84 70.2384 240.064 68.3431" stroke="#535461" stroke-width="2" stroke-miterlimit="10"/>
<path d="M242.851 62.4857C242.851 64.0297 240.015 68.5062 240.015 68.5062C240.015 68.5062 237.18 64.0297 237.18 62.4857C237.151 62.1012 237.203 61.7151 237.332 61.3513C237.461 60.9876 237.664 60.654 237.93 60.3716C238.195 60.0891 238.517 59.8638 238.874 59.7098C239.232 59.5557 239.617 59.4762 240.007 59.4762C240.398 59.4762 240.783 59.5557 241.141 59.7098C241.498 59.8638 241.82 60.0891 242.085 60.3716C242.351 60.654 242.554 60.9876 242.683 61.3513C242.812 61.7151 242.864 62.1012 242.835 62.4857H242.851Z" fill="#379237"/>
<path d="M247.514 71.0362C246.666 72.3331 241.83 74.57 241.83 74.57C241.83 74.57 241.918 69.2935 242.766 67.9966C242.954 67.66 243.21 67.3652 243.519 67.1306C243.827 66.896 244.181 66.7267 244.558 66.6331C244.936 66.5395 245.329 66.5237 245.713 66.5867C246.096 66.6497 246.463 66.7901 246.79 66.9992C247.116 67.2082 247.396 67.4815 247.611 67.802C247.826 68.1224 247.972 68.4833 248.04 68.8619C248.108 69.2406 248.097 69.6291 248.006 70.0031C247.916 70.3772 247.748 70.7288 247.514 71.0362Z" fill="#379237"/>
<path d="M247.311 85.6531C245.916 86.3487 240.608 85.8672 240.608 85.8672C240.608 85.8672 243.379 81.3549 244.774 80.6594C245.108 80.461 245.48 80.3329 245.867 80.2831C246.254 80.2332 246.647 80.2628 247.021 80.3699C247.396 80.4769 247.744 80.6592 248.044 80.9053C248.345 81.1514 248.59 81.456 248.766 81.8001C248.941 82.1442 249.043 82.5205 249.065 82.9053C249.087 83.2901 249.028 83.6752 248.893 84.0366C248.757 84.3979 248.547 84.7278 248.277 85.0055C248.007 85.2832 247.681 85.5028 247.321 85.6506L247.311 85.6531Z" fill="#379237"/>
<path d="M244.637 96.6878C243.382 97.605 238.056 98.0203 238.056 98.0203C238.056 98.0203 240.015 93.1106 241.273 92.1909C241.879 91.8273 242.6 91.7008 243.295 91.8364C243.99 91.9719 244.608 92.3597 245.029 92.9233C245.449 93.4869 245.64 94.1856 245.566 94.8818C245.491 95.578 245.155 96.2214 244.625 96.6853L244.637 96.6878Z" fill="#379237"/>
<path d="M235.891 74.8707C237.012 75.9459 242.232 77.0618 242.232 77.0618C242.232 77.0618 240.943 71.9382 239.832 70.8604C239.284 70.4042 238.58 70.1703 237.864 70.2059C237.148 70.2415 236.472 70.5439 235.973 71.0522C235.473 71.5605 235.187 72.237 235.172 72.9455C235.156 73.654 235.413 74.3419 235.891 74.8707Z" fill="#379237"/>
<path d="M232.929 87.8035C234.323 88.4991 239.631 88.0175 239.631 88.0175C239.631 88.0175 236.86 83.5053 235.465 82.8098C234.804 82.5384 234.063 82.5244 233.392 82.7704C232.721 83.0164 232.168 83.5043 231.846 84.1361C231.524 84.7679 231.455 85.4969 231.654 86.1767C231.853 86.8565 232.304 87.4367 232.918 87.801L232.929 87.8035Z" fill="#379237"/>
<path d="M231.794 100.764C233.05 101.682 238.376 102.097 238.376 102.097C238.376 102.097 236.416 97.1872 235.158 96.2674C234.864 96.0097 234.518 95.8154 234.143 95.697C233.768 95.5786 233.372 95.5387 232.98 95.5797C232.589 95.6208 232.21 95.742 231.869 95.9355C231.528 96.1291 231.231 96.3908 230.997 96.704C230.763 97.0172 230.598 97.375 230.513 97.7547C230.427 98.1344 230.422 98.5276 230.498 98.9093C230.574 99.291 230.73 99.6528 230.955 99.9718C231.181 100.291 231.471 100.56 231.807 100.762L231.794 100.764Z" fill="#379237"/>
<path opacity="0.1" d="M242.851 62.4857C242.851 64.0297 240.015 68.5062 240.015 68.5062C240.015 68.5062 237.18 64.0297 237.18 62.4857C237.151 62.1012 237.203 61.7151 237.332 61.3513C237.461 60.9876 237.664 60.654 237.93 60.3716C238.195 60.0891 238.517 59.8638 238.874 59.7098C239.232 59.5557 239.617 59.4762 240.007 59.4762C240.398 59.4762 240.783 59.5557 241.141 59.7098C241.498 59.8638 241.82 60.0891 242.085 60.3716C242.351 60.654 242.554 60.9876 242.683 61.3513C242.812 61.7151 242.864 62.1012 242.835 62.4857H242.851Z" fill="#379237"/>
<path opacity="0.1" d="M247.514 71.0362C246.666 72.3331 241.83 74.57 241.83 74.57C241.83 74.57 241.918 69.2935 242.766 67.9966C242.954 67.66 243.21 67.3652 243.519 67.1306C243.827 66.896 244.181 66.7267 244.558 66.6331C244.936 66.5395 245.329 66.5237 245.713 66.5867C246.096 66.6497 246.463 66.7901 246.79 66.9992C247.116 67.2082 247.396 67.4815 247.611 67.802C247.826 68.1224 247.972 68.4833 248.04 68.8619C248.108 69.2406 248.097 69.6291 248.006 70.0031C247.916 70.3772 247.748 70.7288 247.514 71.0362Z" fill="#379237"/>
<path opacity="0.1" d="M247.311 85.6531C245.916 86.3487 240.608 85.8672 240.608 85.8672C240.608 85.8672 243.379 81.3549 244.774 80.6594C245.108 80.461 245.48 80.3329 245.867 80.2831C246.254 80.2332 246.647 80.2628 247.021 80.3699C247.396 80.4769 247.744 80.6592 248.044 80.9053C248.345 81.1514 248.59 81.456 248.766 81.8001C248.941 82.1442 249.043 82.5205 249.065 82.9053C249.087 83.2901 249.028 83.6752 248.893 84.0366C248.757 84.3979 248.547 84.7278 248.277 85.0055C248.007 85.2832 247.681 85.5028 247.321 85.6506L247.311 85.6531Z" fill="#379237"/>
<path opacity="0.1" d="M244.637 96.6878C243.382 97.605 238.056 98.0203 238.056 98.0203C238.056 98.0203 240.015 93.1106 241.273 92.1909C241.879 91.8273 242.6 91.7008 243.295 91.8364C243.99 91.9719 244.608 92.3597 245.029 92.9233C245.449 93.4869 245.64 94.1856 245.566 94.8818C245.491 95.578 245.155 96.2214 244.625 96.6853L244.637 96.6878Z" fill="#379237"/>
<path opacity="0.1" d="M235.891 74.8707C237.012 75.9459 242.232 77.0618 242.232 77.0618C242.232 77.0618 240.943 71.9382 239.832 70.8604C239.284 70.4042 238.58 70.1703 237.864 70.2059C237.148 70.2415 236.472 70.5439 235.973 71.0522C235.473 71.5605 235.187 72.237 235.172 72.9455C235.156 73.654 235.413 74.3419 235.891 74.8707Z" fill="#379237"/>
<path opacity="0.1" d="M232.929 87.8035C234.323 88.4991 239.631 88.0175 239.631 88.0175C239.631 88.0175 236.86 83.5053 235.465 82.8098C234.804 82.5384 234.063 82.5244 233.392 82.7704C232.721 83.0164 232.168 83.5043 231.846 84.1361C231.524 84.7679 231.455 85.4969 231.654 86.1767C231.853 86.8565 232.304 87.4367 232.918 87.801L232.929 87.8035Z" fill="#379237"/>
<path opacity="0.1" d="M231.794 100.764C233.05 101.682 238.376 102.097 238.376 102.097C238.376 102.097 236.416 97.1872 235.158 96.2674C234.864 96.0097 234.518 95.8154 234.143 95.697C233.768 95.5786 233.372 95.5387 232.98 95.5797C232.589 95.6208 232.21 95.742 231.869 95.9355C231.528 96.1291 231.231 96.3908 230.997 96.704C230.763 97.0172 230.598 97.375 230.513 97.7547C230.427 98.1344 230.422 98.5276 230.498 98.9093C230.574 99.291 230.73 99.6528 230.955 99.9718C231.181 100.291 231.471 100.56 231.807 100.762L231.794 100.764Z" fill="#379237"/>
<path opacity="0.1" d="M139.192 150.682C209.212 143.933 265.084 129.431 263.984 118.292C262.885 107.152 205.232 103.593 135.211 110.342C65.1912 117.091 9.3197 131.592 10.4189 142.732C11.518 153.871 69.1717 157.431 139.192 150.682Z" fill="#379237"/>
<path d="M252.951 120.067C257.718 110.41 256.733 94.6929 256.225 89.3577C256.114 88.1908 256.027 87.5207 256.027 87.5207C256.027 87.5207 251.825 86.8659 253.374 81.839C254.132 79.3778 251.44 78.0173 248.502 77.2708C246.4 76.7741 244.256 76.4747 242.098 76.3765L201.396 73.8923C195.815 65.138 184.833 66.5444 184.833 66.5444C184.833 66.5444 175.037 65.538 168.092 65.4335C167.038 64.5157 165.883 63.7183 164.648 63.0564C163.912 62.6194 163.129 62.2664 162.312 62.0041C161.32 61.7211 160.274 61.6716 159.259 61.8597C158.244 62.0477 157.287 62.468 156.466 63.087C156.065 63.3716 155.739 63.7462 155.514 64.18C155.428 64.3772 155.363 64.5831 155.321 64.794C155.216 65.1538 155.13 65.5186 155.063 65.887C155.003 66.0644 154.916 66.2318 154.805 66.3839C154.527 66.7737 154.047 67.0667 153.986 67.538C153.984 67.5652 153.984 67.5924 153.986 67.6196C153.935 67.7096 153.901 67.808 153.885 67.91C153.866 68.1198 153.912 68.3302 154.017 68.5138C154.032 68.5444 154.05 68.5724 154.068 68.6005C153.725 69.0909 153.446 69.6215 153.235 70.1801C153.14 70.2314 153.048 70.2884 152.96 70.3508L152.882 70.4069V70.5623L152.838 70.5954L152.743 73.105L152.797 73.1458C152.875 74.3165 153.233 75.4523 153.84 76.4603C154.448 77.4682 155.288 78.3196 156.293 78.9447C156.326 79.1052 156.357 79.2683 156.388 79.439C156.53 80.2619 156.594 81.0961 156.579 81.9307H156.535C155.324 81.4212 153.251 82.1702 151.47 83.0442H128.392C132.893 77.3217 138.4 72.8834 138.4 72.8834V67.854C134.466 67.6603 99.9064 84.0684 92.33 87.6914L91.9949 87.8519L53.0557 89.0443C46.0026 89.001 39.8363 90.0252 34.4948 91.6941C25.5691 94.4651 17.5481 99.5296 11.2525 106.37C6.65354 111.358 4.63763 115.481 4.63763 115.481L4.68145 115.827L4.63763 115.916L4.6995 115.97L5.7487 124.153L6.47051 129.784C1.45392 132.989 7.9528 134.273 7.9528 134.273C14.1398 139.517 24.093 139.3 24.093 139.3C26.524 142.579 33.6003 142.141 33.6003 142.141H70.7453C71.3238 138.771 72.0984 135.436 73.0654 132.154C74.6508 143.438 83.6605 152.083 94.5341 152.083C95.3406 152.082 96.1464 152.034 96.947 151.938C97.7476 152.034 98.5534 152.082 99.3599 152.083C110.36 152.083 119.449 143.234 120.88 131.761H122.698C122.358 134.325 121.769 136.849 120.937 139.3C154.323 129.685 216.453 125.096 216.453 125.096C216.711 122.676 216.995 120.337 217.301 118.092C219.861 124.373 225.664 128.757 232.418 128.757C233.032 128.757 233.645 128.719 234.254 128.645C234.863 128.719 235.476 128.757 236.089 128.757C244.109 128.757 250.783 122.574 252.289 114.375C252.488 115.822 252.602 117.279 252.629 118.739C252.343 120.13 252.093 121.02 252.059 121.144C252.26 120.781 252.451 120.409 252.631 120.029C252.631 120.176 252.631 120.329 252.631 120.482C252.57 120.737 252.526 120.88 252.513 120.928L252.626 120.719C252.626 120.831 252.626 120.941 252.626 121.053C252.601 121.063 252.737 120.696 252.951 120.067Z" fill="url(#paint0_linear_21_11)"/>
<path d="M249.056 85.3703H172.518V115.886H249.056V85.3703Z" fill="#6F7D95"/>
<path d="M153.058 71.0795L163.929 95.1489L185.457 93.8597L186.325 83.9741L186.978 72.3687L156.538 70.2184L153.058 71.0795Z" fill="#4B5C7A"/>
<path d="M153.058 71.0795C153.058 71.0795 157.182 67.2119 162.191 66.3507C167.2 65.4896 183.936 67.2094 183.936 67.2094L186.328 71.2859L185.879 73.2274L153.058 71.0795Z" fill="#FF4D52"/>
<path d="M194.044 83.4365H116.854V105.786H194.044V83.4365Z" fill="#4B5C7A"/>
<path d="M175.052 98.642C177.091 91.903 173.026 87.4748 173.026 87.4748L166.287 82.8276C166.282 82.8434 166.275 82.8587 166.267 82.8735C165.39 81.8583 164.763 80.6567 164.434 79.3625C164.413 79.281 164.395 79.1969 164.375 79.1078C164.991 78.6554 165.53 78.1093 165.973 77.4899C167.071 76.8249 167.561 75.7548 167.746 74.6873C168.453 73.6511 169.016 72.5259 169.419 71.3419C169.486 71.1505 169.543 70.9557 169.59 70.7585C169.719 70.3913 169.777 70.0031 169.76 69.6145C169.705 69.1818 169.559 68.7653 169.332 68.3916C168.198 66.3533 166.156 64.9341 164.086 63.7774C163.362 63.3479 162.592 63.0009 161.789 62.743C160.813 62.465 159.785 62.4165 158.787 62.6014C157.788 62.7863 156.848 63.1996 156.04 63.808C155.646 64.088 155.326 64.4565 155.104 64.8832C155.019 65.0771 154.955 65.2796 154.914 65.487C154.814 65.8411 154.732 66.1999 154.669 66.5622C154.613 66.7353 154.531 66.8993 154.426 67.0489C154.151 67.431 153.681 67.7189 153.62 68.1852C153.618 68.2123 153.618 68.2396 153.62 68.2667C153.57 68.3552 153.537 68.4519 153.522 68.5521C153.503 68.7583 153.547 68.9654 153.65 69.1457C153.666 69.1763 153.684 69.2043 153.702 69.2323C153.365 69.7148 153.089 70.2369 152.882 70.7865C152.788 70.837 152.697 70.8932 152.609 70.9547L152.534 71.0082V71.1611L152.49 71.1942L152.395 73.663L152.447 73.7038C152.523 74.8553 152.874 75.9727 153.471 76.9642C154.068 77.9558 154.895 78.7934 155.883 79.4084C155.916 79.5664 155.947 79.7269 155.976 79.895C156.131 80.784 156.194 81.6865 156.161 82.5881C156.151 82.5103 156.151 82.4315 156.161 82.3537C154.298 81.5205 150.232 83.8238 148.595 84.8429C148.347 84.9591 148.116 85.1074 147.907 85.2837L147.879 85.3041C146.752 86.206 144.527 88.7131 142.761 95.1566C140.312 104.148 140.568 106.186 138.784 108.27C137 110.354 135.229 125.038 135.229 125.038L138.82 125.993L139.279 124.536C143.548 128.383 155.501 130.235 155.501 130.235L155.867 129.112C157.7 129.764 160.765 128.773 160.765 128.773C165.246 127.208 166.924 123.239 170.175 118.003C173.426 112.767 175.052 98.642 175.052 98.642ZM156.981 125.733L165.256 100.364C166.006 104.303 162.696 110.507 162.402 114.563C162.219 117.172 159.147 122.357 156.981 125.733Z" fill="url(#paint1_linear_21_11)"/>
<path d="M167.334 71.9483C167.334 71.9483 168.775 77.3727 164.498 78.3179C160.222 79.2632 163.039 75.8796 163.039 75.8796L167.164 71.9076L167.334 71.9483Z" fill="#472727"/>
<path d="M149.454 84.8761C149.454 84.8761 146.273 86.15 143.934 94.7311C141.596 103.312 141.828 105.249 140.145 107.243C138.461 109.238 136.737 123.236 136.737 123.236L140.104 124.133L143.035 114.777L151.096 90.0634L149.454 84.8761Z" fill="#DDE0E4"/>
<path opacity="0.05" d="M149.454 84.8761C149.454 84.8761 146.273 86.15 143.934 94.7311C141.596 103.312 141.828 105.249 140.145 107.243C138.461 109.238 136.737 123.236 136.737 123.236L140.104 124.133L143.035 114.777L151.096 90.0634L149.454 84.8761Z" fill="black"/>
<path d="M167.117 83.9079C167.117 83.9079 153.8 90.5985 155.749 86.234C156.713 84.0786 156.677 81.8441 156.396 80.1192C156.236 79.1032 155.954 78.1095 155.558 77.1586C155.558 77.1586 164.612 70.0808 164.081 75.8592C163.954 77.103 164.041 78.359 164.338 79.574C165.122 82.639 167.117 83.9079 167.117 83.9079Z" fill="#DB8B8B"/>
<path opacity="0.1" d="M164.338 79.5842C163.482 80.264 162.475 80.7338 161.4 80.9552C160.324 81.1766 159.211 81.1433 158.151 80.8581C157.532 80.6934 156.938 80.4456 156.386 80.1218C156.225 79.1058 155.944 78.112 155.548 77.1612C155.548 77.1612 164.601 70.0833 164.07 75.8618C163.946 77.1087 164.036 78.3674 164.338 79.5842Z" fill="black"/>
<path d="M166.801 75.655C167.802 71.981 165.6 68.2006 161.882 67.2114C158.165 66.2221 154.34 68.3985 153.339 72.0726C152.338 75.7466 154.54 79.5269 158.258 80.5162C161.975 81.5055 165.8 79.329 166.801 75.655Z" fill="#DB8B8B"/>
<path opacity="0.1" d="M156.569 70.5037C156.377 70.6192 156.165 70.6952 155.943 70.7273C155.721 70.7595 155.495 70.7469 155.278 70.6905C155.062 70.6341 154.859 70.535 154.682 70.3991C154.505 70.2633 154.357 70.0934 154.249 69.8999C154.153 69.7272 154.112 69.5303 154.13 69.3343C154.189 68.8909 154.633 68.6158 154.903 68.2489C155.324 67.6552 155.244 66.8425 155.548 66.1826C155.757 65.7796 156.059 65.4305 156.429 65.1634C157.183 64.5814 158.065 64.1837 159.004 64.0031C159.942 63.8224 160.911 63.8638 161.83 64.1239C162.582 64.3665 163.304 64.6939 163.98 65.0997C165.919 66.1928 167.829 67.5304 168.878 69.4744C169.091 69.8311 169.226 70.2276 169.275 70.6387C169.287 71.0829 169.208 71.5248 169.043 71.9381C168.655 73.08 168.115 74.1656 167.437 75.1662C167.21 74.8878 166.925 74.661 166.602 74.5013C166.438 74.425 166.255 74.4014 166.077 74.4338C165.9 74.4663 165.737 74.5532 165.612 74.6822C165.388 74.965 165.251 75.5051 164.911 75.3777C164.689 75.2962 164.692 74.993 164.702 74.7586C164.748 73.7395 164.186 72.7789 163.431 72.091C162.676 71.4031 161.74 70.9496 160.817 70.5037C160.155 70.1827 159.27 69.4464 158.543 69.3164C157.641 69.1508 157.216 70.1088 156.569 70.5037Z" fill="black"/>
<path d="M156.664 70.1547C156.473 70.2701 156.26 70.3462 156.038 70.3783C155.817 70.4104 155.59 70.3979 155.374 70.3415C155.157 70.2851 154.954 70.186 154.777 70.0501C154.6 69.9142 154.453 69.7444 154.344 69.5508C154.248 69.3782 154.207 69.1812 154.225 68.9852C154.285 68.5419 154.728 68.2667 154.999 67.8998C155.419 67.3062 155.339 66.4934 155.643 65.8335C155.853 65.4305 156.155 65.0815 156.525 64.8144C157.278 64.2323 158.16 63.8347 159.099 63.654C160.038 63.4733 161.006 63.5148 161.926 63.7749C162.678 64.0174 163.399 64.3449 164.076 64.7507C166.014 65.8437 167.924 67.1813 168.974 69.1253C169.186 69.4821 169.321 69.8786 169.371 70.2897C169.382 70.7338 169.303 71.1757 169.139 71.5891C168.751 72.7309 168.211 73.8165 167.532 74.8172C167.306 74.5388 167.021 74.312 166.697 74.1522C166.534 74.0759 166.35 74.0523 166.173 74.0848C165.995 74.1173 165.832 74.2041 165.707 74.3331C165.483 74.6159 165.346 75.1561 165.006 75.0287C164.784 74.9471 164.787 74.6439 164.797 74.4095C164.844 73.3904 164.282 72.4299 163.526 71.742C162.771 71.054 161.835 70.6005 160.912 70.1547C160.25 69.8336 159.366 69.0973 158.639 68.9674C157.736 68.7992 157.311 69.7597 156.664 70.1547Z" fill="#472727"/>
<path d="M160.314 84.82C160.314 84.82 165.829 83.7524 166.068 82.8785L172.374 87.2786C172.374 87.2786 176.168 91.48 174.227 97.9108C174.227 97.9108 172.647 111.386 169.574 116.388C166.501 121.389 164.735 127.868 160.526 129.382C160.526 129.382 156.478 126.803 155.143 126.834C155.143 126.834 161.998 117.017 162.292 113.152C162.585 109.287 165.718 103.361 165.032 99.6102L155.751 128.12C155.751 128.12 140.8 125.827 139.284 120.923C139.284 120.923 140.573 119.009 140.333 117.07C140.093 115.132 145.974 100.545 145.974 100.545L148.789 85.3346C148.789 85.3346 154.357 81.49 156.574 82.4887C156.564 82.4734 156.161 84.3716 160.314 84.82Z" fill="#DDE0E4"/>
<g opacity="0.1">
<path d="M162.323 72.9929C160.961 71.1585 158.365 72.6643 157.94 72.9267L157.272 72.8605C156.69 72.2337 154.903 70.5674 153.225 71.7929L153.153 71.8464L153.052 74.1981L153.125 74.2541C153.609 74.624 154.159 74.9021 154.746 75.0745C155.118 75.1825 155.51 75.2017 155.891 75.1306C156.172 75.0663 156.436 74.9418 156.664 74.7657C156.892 74.5896 157.077 74.3663 157.208 74.1114L157.556 74.1344L157.814 74.086C157.865 74.3569 157.975 74.6139 158.135 74.8397C158.295 75.0655 158.502 75.255 158.742 75.3955C159.894 76.0401 161.578 75.3955 161.647 75.3828L161.735 75.3497L162.353 73.0745L162.323 72.9929ZM161.449 75.0618C161.106 75.1764 159.812 75.5535 158.943 75.0618C158.727 74.9278 158.544 74.7464 158.41 74.5317C158.276 74.317 158.194 74.0747 158.17 73.8235L158.139 73.6375L157.574 73.7522L157.007 73.7318L156.953 73.8388C156.849 74.0703 156.693 74.2752 156.497 74.4377C156.301 74.6003 156.07 74.7161 155.821 74.7764C154.849 74.9828 153.725 74.2388 153.431 74.0274L153.516 72.04C154.976 71.0693 156.584 72.6439 157.048 73.1585L157.097 73.212L158.038 73.3038L158.095 73.2656C158.121 73.2503 160.459 71.6986 161.791 72.9471C161.858 73.0076 161.919 73.0732 161.975 73.1433L161.449 75.0618Z" fill="black"/>
<path d="M166.545 74.1751L162.163 73.8159L161.802 73.7471L161.964 73.1458C161.908 73.0758 161.847 73.0102 161.781 72.9496L162.312 73.0006L165.898 73.3471L166.545 74.1751Z" fill="black"/>
</g>
<path d="M162.369 72.8299C161.008 70.9954 158.412 72.5012 157.987 72.7636L157.319 72.6974C156.736 72.0706 154.95 70.4043 153.272 71.6298L153.199 71.6833L153.099 74.035L153.171 74.091C153.656 74.4609 154.205 74.739 154.792 74.9115C155.164 75.0194 155.556 75.0386 155.937 74.9675C156.219 74.9033 156.483 74.7787 156.71 74.6026C156.938 74.4265 157.124 74.2032 157.254 73.9484L157.602 73.9713L157.86 73.9229C157.912 74.1938 158.021 74.4508 158.181 74.6766C158.341 74.9025 158.548 75.092 158.788 75.2325C159.941 75.8771 161.624 75.2325 161.694 75.2197L161.781 75.1866L162.4 72.9114L162.369 72.8299ZM161.495 74.8987C161.152 75.0134 159.858 75.3904 158.989 74.8987C158.773 74.7647 158.591 74.5834 158.457 74.3686C158.323 74.1539 158.24 73.9116 158.216 73.6605L158.185 73.4745L157.62 73.5891L157.061 73.5535L157.007 73.6605C156.905 73.8932 156.751 74.0998 156.555 74.2641C156.36 74.4285 156.129 74.5462 155.88 74.6083C154.908 74.8146 153.785 74.0707 153.491 73.8592L153.576 71.8719C155.035 70.9012 156.643 72.4757 157.107 72.9904L157.156 73.0439L158.097 73.1356L158.154 73.0974C158.18 73.0821 160.518 71.5305 161.851 72.7789C161.917 72.8395 161.978 72.9051 162.034 72.9751L161.495 74.8987Z" fill="#472727"/>
<path d="M166.586 74.0121L162.219 73.6528L161.859 73.584L162.021 72.9827C161.965 72.9127 161.904 72.8471 161.838 72.7866L162.369 72.8375L165.955 73.184L166.586 74.0121Z" fill="#472727"/>
<path d="M136.639 100.843H60.1011V131.359H136.639V100.843Z" fill="#6F7D95"/>
<path d="M95.1296 151.344C106.925 151.344 116.488 141.001 116.488 128.243C116.488 115.484 106.925 105.142 95.1296 105.142C83.334 105.142 73.7717 115.484 73.7717 128.243C73.7717 141.001 83.334 151.344 95.1296 151.344Z" fill="#4B5C7A"/>
<path opacity="0.05" d="M95.1296 151.344C106.925 151.344 116.488 141.001 116.488 128.243C116.488 115.484 106.925 105.142 95.1296 105.142C83.334 105.142 73.7717 115.484 73.7717 128.243C73.7717 141.001 83.334 151.344 95.1296 151.344Z" fill="black"/>
<path d="M99.8755 151.344C111.671 151.344 121.233 141.001 121.233 128.243C121.233 115.484 111.671 105.142 99.8755 105.142C88.0799 105.142 78.5176 115.484 78.5176 128.243C78.5176 141.001 88.0799 151.344 99.8755 151.344Z" fill="#4B5C7A"/>
<path opacity="0.05" d="M99.4012 137.741C104.643 137.741 108.893 133.541 108.893 128.36C108.893 123.179 104.643 118.979 99.4012 118.979C94.159 118.979 89.9094 123.179 89.9094 128.36C89.9094 133.541 94.159 137.741 99.4012 137.741Z" fill="black"/>
<path d="M99.4012 131.175C100.974 131.175 102.25 129.915 102.25 128.36C102.25 126.805 100.974 125.545 99.4012 125.545C97.828 125.545 96.5526 126.805 96.5526 128.36C96.5526 129.915 97.828 131.175 99.4012 131.175Z" stroke="#6F7D95" stroke-width="2" stroke-miterlimit="10"/>
<path d="M99.4012 124.138C99.7942 124.138 100.113 123.823 100.113 123.435C100.113 123.047 99.7942 122.732 99.4012 122.732C99.0082 122.732 98.6897 123.047 98.6897 123.435C98.6897 123.823 99.0082 124.138 99.4012 124.138Z" fill="#6F7D95"/>
<path d="M103.752 125.332C104.053 125.082 104.092 124.638 103.84 124.341C103.587 124.043 103.138 124.005 102.837 124.254C102.536 124.504 102.497 124.947 102.75 125.245C103.002 125.542 103.451 125.581 103.752 125.332Z" fill="#6F7D95"/>
<path d="M105.451 128.737C105.519 128.354 105.261 127.99 104.874 127.922C104.487 127.855 104.118 128.11 104.049 128.493C103.981 128.875 104.239 129.24 104.626 129.307C105.013 129.375 105.382 129.119 105.451 128.737Z" fill="#6F7D95"/>
<path d="M103.072 132.781C103.412 132.587 103.529 132.157 103.332 131.821C103.136 131.484 102.701 131.369 102.36 131.563C102.02 131.758 101.903 132.188 102.1 132.524C102.296 132.86 102.731 132.976 103.072 132.781Z" fill="#6F7D95"/>
<path d="M99.3256 133.162C99.46 132.797 99.2696 132.394 98.9004 132.261C98.5311 132.128 98.1228 132.316 97.9884 132.681C97.854 133.046 98.0444 133.45 98.4137 133.582C98.7829 133.715 99.1912 133.527 99.3256 133.162Z" fill="#6F7D95"/>
<path d="M95.709 130.99C96.0782 130.858 96.2686 130.454 96.1342 130.089C95.9998 129.724 95.5916 129.536 95.2223 129.669C94.8531 129.802 94.6627 130.205 94.7971 130.57C94.9315 130.935 95.3397 131.123 95.709 130.99Z" fill="#6F7D95"/>
<path d="M96.0409 126.597C96.2374 126.261 96.1208 125.831 95.7805 125.637C95.4402 125.442 95.005 125.558 94.8085 125.894C94.6121 126.23 94.7287 126.66 95.069 126.855C95.4093 127.049 95.8444 126.934 96.0409 126.597Z" fill="#6F7D95"/>
<path d="M253.34 110.39C252.611 115.369 250.582 120.818 250.582 120.818C250.596 120.479 250.604 120.143 250.608 119.812C250.608 119.384 250.608 118.961 250.608 118.538C250.35 104.815 242.784 96.349 237.904 92.2954C236.636 91.2272 235.271 90.2754 233.828 89.452H247.092C247.092 89.452 252.309 99.9822 253.397 105.139C253.712 106.586 253.624 108.454 253.34 110.39Z" fill="#FF4D52"/>
<path opacity="0.05" d="M253.34 110.39C252.611 115.369 250.582 120.818 250.582 120.818C250.596 120.479 250.604 120.143 250.608 119.812C250.608 119.384 250.608 118.961 250.608 118.538C250.35 104.815 242.784 96.349 237.904 92.2954C236.636 91.2272 235.271 90.2754 233.828 89.452H247.092C247.092 89.452 252.309 99.9822 253.397 105.139C253.712 106.586 253.624 108.454 253.34 110.39Z" fill="black"/>
<path d="M230.727 128.406C239.698 128.406 246.97 120.54 246.97 110.836C246.97 101.132 239.698 93.2661 230.727 93.2661C221.756 93.2661 214.484 101.132 214.484 110.836C214.484 120.54 221.756 128.406 230.727 128.406Z" fill="#4B5C7A"/>
<path opacity="0.05" d="M230.727 128.406C239.698 128.406 246.97 120.54 246.97 110.836C246.97 101.132 239.698 93.2661 230.727 93.2661C221.756 93.2661 214.484 101.132 214.484 110.836C214.484 120.54 221.756 128.406 230.727 128.406Z" fill="black"/>
<path d="M234.336 128.406C243.307 128.406 250.579 120.54 250.579 110.836C250.579 101.132 243.307 93.2661 234.336 93.2661C225.365 93.2661 218.093 101.132 218.093 110.836C218.093 120.54 225.365 128.406 234.336 128.406Z" fill="#4B5C7A"/>
<path opacity="0.05" d="M233.975 118.059C237.962 118.059 241.193 114.865 241.193 110.925C241.193 106.985 237.962 103.791 233.975 103.791C229.989 103.791 226.757 106.985 226.757 110.925C226.757 114.865 229.989 118.059 233.975 118.059Z" fill="black"/>
<path d="M233.975 113.065C235.171 113.065 236.141 112.107 236.141 110.925C236.141 109.743 235.171 108.785 233.975 108.785C232.779 108.785 231.81 109.743 231.81 110.925C231.81 112.107 232.779 113.065 233.975 113.065Z" stroke="#6F7D95" stroke-width="2" stroke-miterlimit="10"/>
<path d="M233.975 107.715C234.274 107.715 234.517 107.475 234.517 107.18C234.517 106.884 234.274 106.645 233.975 106.645C233.676 106.645 233.434 106.884 233.434 107.18C233.434 107.475 233.676 107.715 233.975 107.715Z" fill="#6F7D95"/>
<path d="M237.286 108.622C237.515 108.432 237.545 108.095 237.353 107.868C237.161 107.642 236.819 107.612 236.59 107.802C236.361 107.992 236.331 108.33 236.523 108.556C236.715 108.782 237.057 108.812 237.286 108.622Z" fill="#6F7D95"/>
<path d="M238.576 111.214C238.628 110.923 238.431 110.645 238.137 110.594C237.842 110.543 237.562 110.737 237.51 111.028C237.458 111.319 237.654 111.597 237.949 111.648C238.243 111.699 238.524 111.505 238.576 111.214Z" fill="#6F7D95"/>
<path d="M236.769 114.289C237.028 114.142 237.117 113.814 236.967 113.559C236.818 113.303 236.487 113.215 236.228 113.363C235.969 113.51 235.88 113.838 236.029 114.094C236.179 114.35 236.51 114.437 236.769 114.289Z" fill="#6F7D95"/>
<path d="M233.919 114.578C234.021 114.3 233.877 113.993 233.596 113.892C233.315 113.791 233.004 113.934 232.902 114.212C232.799 114.49 232.944 114.797 233.225 114.898C233.506 114.999 233.817 114.856 233.919 114.578Z" fill="#6F7D95"/>
<path d="M231.167 112.924C231.448 112.823 231.593 112.516 231.491 112.238C231.389 111.961 231.078 111.818 230.797 111.919C230.516 112.02 230.371 112.327 230.474 112.604C230.576 112.882 230.886 113.025 231.167 112.924Z" fill="#6F7D95"/>
<path d="M231.423 109.584C231.573 109.328 231.484 109.001 231.225 108.853C230.966 108.705 230.635 108.793 230.485 109.049C230.336 109.305 230.425 109.632 230.684 109.78C230.942 109.928 231.274 109.84 231.423 109.584Z" fill="#6F7D95"/>
<path d="M8.67981 130.607L6.71545 115.348H29.981L41.9399 125.878L36.07 139.418C36.07 139.418 12.3868 135.55 8.67981 130.607Z" fill="#FF4D52"/>
<path opacity="0.05" d="M41.9476 125.878L36.0777 139.418C36.0777 139.418 12.3868 135.55 8.6798 130.607L8.59473 129.942L6.7902 115.832L6.77216 115.692L6.72833 115.351H29.9939L41.9476 125.878Z" fill="black"/>
<path d="M138.273 68.5011V73.4439C138.273 73.4439 126.25 83.1257 123.389 92.2597C122.889 93.7429 122.7 95.3111 122.834 96.8687C123.922 106.968 91.5283 88.7003 91.5283 88.7003L92.9693 88.0073C100.417 84.4582 134.404 68.3075 138.273 68.5011Z" fill="#7597CE"/>
<path d="M165.671 92.3565C165.671 92.3565 176.931 86.8888 178.739 82.8429C178.981 82.3002 179.21 81.7524 179.478 81.2199C180.595 79.0007 182.941 73.7955 181.76 71.2961C180.239 68.0731 185.457 71.7267 185.457 71.7267L182.412 86.9806L175.019 91.0571L165.452 92.3565" fill="#FF4D52"/>
<path opacity="0.05" d="M165.671 92.3565C165.671 92.3565 176.931 86.8888 178.739 82.8429C178.981 82.3002 179.21 81.7524 179.478 81.2199C180.595 79.0007 182.941 73.7955 181.76 71.2961C180.239 68.0731 185.457 71.7267 185.457 71.7267L182.412 86.9806L175.019 91.0571L165.452 92.3565" fill="black"/>
<path opacity="0.05" d="M41.9476 125.878L36.0777 139.418C36.0777 139.418 12.3868 135.55 8.67979 130.607L8.59471 129.942C8.6901 129.878 8.79063 129.812 8.89633 129.749C8.89633 129.749 16.0706 135.336 32.381 136.628C32.381 136.628 42.177 128.89 26.292 120.296C26.292 120.296 12.4745 120.724 6.78245 115.835L6.72058 115.784L6.76441 115.695C6.80222 115.622 6.86323 115.508 6.94744 115.353H29.9861L41.9476 125.878Z" fill="black"/>
<path opacity="0.05" d="M122.834 96.8662C123.922 106.968 91.5283 88.7003 91.5283 88.7003L92.9693 88.0073C93.9232 89.0112 97.7307 92.3972 105.343 92.0304C110.241 91.7934 117.678 92.01 123.401 92.2571C122.898 93.7394 122.705 95.3077 122.834 96.8662Z" fill="black"/>
<path opacity="0.05" d="M136.642 100.843V131.359H122.422C123.36 124.26 122.819 113.914 113.698 107.982C110.296 105.785 106.347 104.559 102.284 104.439C98.2223 104.319 94.2056 105.311 90.6776 107.305C84.6994 110.678 78.0149 117.537 73.7666 131.359H60.1037V100.843H136.642Z" fill="black"/>
<path opacity="0.05" d="M253.34 110.39C252.804 113.758 251.943 117.03 250.61 119.817C250.439 120.192 250.251 120.558 250.048 120.915C250.082 120.79 250.327 119.919 250.61 118.548C251.992 111.873 254.356 93.4011 238.517 92.3463C238.311 92.3336 238.108 92.3208 237.904 92.3132C236.636 91.2388 235.272 90.2811 233.828 89.452H247.092C247.092 89.452 252.309 99.9822 253.397 105.139C253.712 106.586 253.624 108.454 253.34 110.39Z" fill="black"/>
<path d="M250.479 120.706C250.685 119.97 258.032 93.4113 238.948 92.1399C219.596 90.8507 217.203 105.249 215.03 124.806C215.03 124.806 153.934 129.318 121.097 138.776C121.097 138.776 128.98 117.425 114.136 107.768C110.735 105.571 106.785 104.345 102.723 104.225C98.6606 104.105 94.6439 105.097 91.1158 107.091C83.7946 111.223 75.4087 120.594 71.7403 141.568H35.2064C35.2064 141.568 28.246 141.999 25.8563 138.765C25.8563 138.765 16.0603 138.979 9.98421 133.823C9.98421 133.823 3.46213 132.533 8.67979 129.31C8.67979 129.31 16.0732 134.898 32.381 136.189C32.381 136.189 42.177 128.452 26.292 119.858C26.292 119.858 12.3713 120.288 6.72317 115.346C6.72317 115.346 8.70557 111.292 13.2298 106.387C19.4178 99.6599 27.3025 94.6773 36.0777 91.9489C41.9906 90.1422 48.1537 89.2636 54.3421 89.345L92.7193 88.1628C92.7193 88.1628 96.4263 92.8916 105.33 92.461C114.234 92.0304 131.64 93.1056 131.64 93.1056H131.813L167.625 91.503C168.654 91.3595 169.671 91.1467 170.67 90.866C175.862 89.4724 185.709 85.2455 183.933 73.4414L240.25 76.881C242.372 76.9774 244.481 77.2717 246.548 77.76C249.44 78.4937 252.085 79.8339 251.34 82.2543C249.819 87.1971 253.949 87.8417 253.949 87.8417C253.949 87.8417 254.036 88.5016 254.145 89.6482C254.66 95.0547 255.673 111.31 250.479 120.706Z" fill="#FF4D52"/>
<path opacity="0.05" d="M78.2598 97.0827C78.2598 97.0827 54.7752 97.2968 39.3336 110.841H48.0314C48.0314 110.841 72.3848 104.609 78.2547 99.6662L78.2598 97.0827Z" fill="black"/>
<path d="M78.0407 96.8662C78.0407 96.8662 54.5561 97.0802 39.1144 110.624H47.8123C47.8123 110.624 72.1657 104.392 78.0356 99.4497L78.0407 96.8662Z" fill="#FFEC9F"/>
<path opacity="0.05" d="M36.2943 92.1654V97.9414L16.5115 106.968L13.4489 106.604C19.6362 99.8769 27.52 94.8942 36.2943 92.1654Z" fill="black"/>
<path d="M36.0751 91.9514V97.7273L16.2897 106.752L13.2272 106.387C19.4155 99.6609 27.3002 94.6791 36.0751 91.9514Z" fill="#FFEC9F"/>
<path opacity="0.05" d="M64.1252 118.143C64.1252 118.143 53.4707 124.589 52.3829 138.781H58.4719C58.4719 138.781 60.8642 123.308 67.8219 118.143H64.1252Z" fill="black"/>
<path opacity="0.05" d="M190.025 118.574L134.793 125.02C134.793 125.02 131.14 102.038 131.816 93.0979L167.628 91.4953C168.655 91.3542 169.671 91.144 170.67 90.866V92.9985L197.632 86.5525C197.632 86.5525 202.2 93.2126 190.025 118.574Z" fill="black"/>
<path d="M183.936 67.2093C183.936 67.2093 195.678 65.7061 200.896 75.5917L184.103 74.9522L183.936 67.2093Z" fill="#FF4D52"/>
<path opacity="0.05" d="M200.081 79.0568C199.62 80.4861 199.968 82.0581 202.641 83.1461C204.866 84.0531 207.474 83.0034 208.235 80.7485C208.678 79.4339 208.374 77.9459 205.977 76.7357C203.579 75.5255 200.888 76.5599 200.081 79.0568Z" fill="black"/>
<path d="M7.13562 118.569C7.13562 118.569 21.0717 125.703 31.074 123.002" stroke="#FF4D52" stroke-miterlimit="10"/>
<path d="M7.62799 122.421C7.62799 122.421 16.6326 129.285 34.8326 127.69" stroke="#FF4D52" stroke-miterlimit="10"/>
<path d="M8.04303 125.654C8.04303 125.654 16.9754 133.315 35.3301 130.887" stroke="#FF4D52" stroke-miterlimit="10"/>
<path opacity="0.05" d="M200.223 74.4376C200.223 74.4376 192.958 80.6364 186.328 83.4391C186.328 83.4391 196.397 85.2098 200.223 74.4376Z" fill="black"/>
<path opacity="0.1" d="M123.262 92.6826C123.262 92.6826 157.734 95.9005 170.778 92.8915C170.778 92.8915 171.474 93.3476 167.321 91.5081L123.262 92.6826Z" fill="black"/>
<path opacity="0.05" d="M254.147 89.6481C252 88.2545 248.594 85.3627 249.058 82.1448C249.291 80.532 248.136 79.0237 246.55 77.7574C249.443 78.4912 252.088 79.8313 251.343 82.2518C249.822 87.1946 253.951 87.8392 253.951 87.8392C253.951 87.8392 254.036 88.5016 254.147 89.6481Z" fill="black"/>
<path d="M80.8893 112.079C80.9099 111.228 80.8893 110.344 80.8249 109.531C80.8249 109.376 80.7991 109.226 80.7836 109.078C81.2683 109.44 81.557 109.715 81.557 109.715L81.1316 87.5895L78.7858 75.9994C78.7858 67.7801 74.3079 65.4641 74.3079 65.4641C74.3079 65.4641 71.962 64.4093 71.3227 62.9366C70.6834 61.464 65.0172 58.3505 65.0146 58.3505C64.9697 57.8142 64.9525 57.2759 64.9631 56.7378C64.9631 56.5976 64.9631 56.4524 64.9759 56.3072C66.3965 55.3763 67.4269 53.9675 67.8759 52.3424C68.3248 50.7174 68.1619 48.9865 67.4172 47.4713C67.7317 47.4713 67.9869 47.3413 68.1055 46.8802C68.4819 45.4203 68.1184 43.2215 67.2625 42.0546C67.0795 41.8105 66.8732 41.5844 66.6464 41.3794C66.3808 41.116 66.1011 40.8668 65.8086 40.6329C65.0765 40.0316 64.2619 39.3997 63.3544 39.4507C62.8397 39.5173 62.345 39.6909 61.9031 39.9603C59.6363 41.1391 57.3754 42.328 55.1206 43.5272C54.288 43.9731 53.4295 44.4419 52.8469 45.2419C52.2643 46.0419 52.0297 47.0662 51.8673 48.0726C51.7308 48.7544 51.6986 49.4527 51.7719 50.144C51.8401 50.773 52.1315 51.3579 52.5943 51.7949C52.6876 51.9064 52.7941 52.0065 52.9114 52.0931C53.3703 52.4243 53.9606 52.5058 54.4401 52.7733C54.8025 53.8136 55.4095 54.754 56.2111 55.5173C56.2111 55.6473 56.193 55.7721 56.1827 55.9148C56.1544 56.2791 56.1106 56.6792 56.0538 57.0843C56.0538 57.0843 54.4787 57.0435 52.1329 60.2028C49.787 63.3621 44.6698 63.7851 44.6698 63.7851C44.6698 63.7851 42.7519 62.9417 40.62 72.4248C38.488 81.9078 37.8487 88.2214 38.9134 89.2813C39.3655 89.6669 39.875 89.9814 40.424 90.2138C42.2313 91.1153 44.1759 91.7178 46.1805 91.9972C46.206 92.0732 46.2493 92.1422 46.3068 92.1985L46.4589 94.0355C46.5878 97.9133 46.7373 105.692 45.9433 107.417C44.8761 109.735 46.1573 111.21 46.1573 111.21L46.4151 111.193C46.4627 111.273 46.5161 111.349 46.5749 111.422L47.6061 111.353C47.5313 115.684 47.3302 121.692 46.7992 123.012C45.9459 125.119 46.7992 136.709 46.7992 136.709L45.3066 157.571C45.3066 157.571 44.4894 168.46 45.255 169.722C44.8374 171.987 44.0872 176.303 44.2419 177.378C44.4559 178.853 49.359 180.96 49.359 180.96C49.359 180.96 55.1155 182.234 57.8867 181.803C59.3355 181.582 59.9104 180.614 59.9155 179.765C61.7948 180.063 64.2412 180.349 65.7751 180.114C68.5463 179.694 68.121 176.532 66.6284 176.743C65.1358 176.955 63.4292 173.989 62.1609 172.514C61.5164 171.77 60.9802 170.44 60.6141 169.301C60.8838 169.261 61.1313 169.131 61.3153 168.932C61.9546 167.877 63.0219 158.185 63.0219 158.185L65.7931 141.328C65.7931 141.328 67.2857 133.109 68.5644 131.214C69.5311 129.782 70.7401 119.096 71.2738 113.949H71.3201H71.3356L71.3923 113.769L72.1941 111.21C72.622 111.957 73.6996 112.326 74.955 112.484C74.8209 113.025 74.7101 113.465 74.6456 113.718C74.326 114.991 78.9868 117.088 80.1108 116.036C80.5825 115.595 80.8274 113.998 80.8842 112.25H80.9228L80.8893 112.079ZM52.8779 169.543C52.8057 169.953 52.7335 170.381 52.6613 170.817C52.4989 170.308 52.37 169.849 52.2824 169.51C52.4938 169.518 52.6923 169.528 52.8779 169.543Z" fill="url(#paint2_linear_21_11)"/>
<path d="M60.0264 165.151C60.0264 165.151 60.8487 168.804 62.0887 170.223C63.3286 171.643 64.963 174.483 66.3989 174.282C67.8348 174.081 68.2473 177.123 65.5766 177.528C62.9059 177.933 57.3634 176.715 57.3634 176.715C57.3634 176.715 52.6407 174.677 52.437 173.266C52.2334 171.854 53.6693 164.539 53.6693 164.539L60.0264 165.151Z" fill="#53526B"/>
<path opacity="0.05" d="M60.0264 165.151C60.0264 165.151 60.8487 168.804 62.0887 170.223C63.3286 171.643 64.963 174.483 66.3989 174.282C67.8348 174.081 68.2473 177.123 65.5766 177.528C62.9059 177.933 57.3634 176.715 57.3634 176.715C57.3634 176.715 52.6407 174.677 52.437 173.266C52.2334 171.854 53.6693 164.539 53.6693 164.539L60.0264 165.151Z" fill="black"/>
<path d="M52.4293 166.774C52.4293 166.774 53.2516 170.427 54.4916 171.846C55.7316 173.266 57.366 176.106 58.8019 175.905C60.2378 175.704 60.6502 178.746 57.9795 179.151C55.3088 179.556 49.7663 178.341 49.7663 178.341C49.7663 178.341 45.0436 176.303 44.84 174.891C44.6363 173.48 46.0722 166.165 46.0722 166.165L52.4293 166.774Z" fill="#53526B"/>
<path d="M71.1139 111.175C71.1139 111.175 69.4718 128.625 68.2396 130.452C67.0073 132.279 65.5714 140.192 65.5714 140.192L62.9033 156.424C62.9033 156.424 61.8722 165.76 61.2612 166.774C60.6502 167.788 53.03 167.352 53.03 167.352L57.7578 113.611L71.1139 111.175Z" fill="#5F5D7E"/>
<path opacity="0.05" d="M71.1139 111.175C71.1139 111.175 69.4718 128.625 68.2396 130.452C67.0073 132.279 65.5714 140.192 65.5714 140.192L62.9033 156.424C62.9033 156.424 61.8722 165.76 61.2612 166.774C60.6502 167.788 53.03 167.352 53.03 167.352L57.7578 113.611L71.1139 111.175Z" fill="black"/>
<path d="M74.3981 102.856L73.8619 104.54L70.9618 113.639L70.9051 113.812H70.8896C70.5003 113.898 62.282 115.766 60.5084 116.339C60.4127 116.369 60.3189 116.403 60.2274 116.444C59.4051 116.849 58.3791 131.458 58.3791 131.458C58.3791 131.458 57.7629 145.257 57.3479 146.271C56.9329 147.285 55.2856 168.183 54.2673 167.576C53.249 166.97 45.8505 167.576 45.8505 167.576C45.0281 166.763 45.8505 155.808 45.8505 155.808L47.2864 135.718C47.2864 135.718 46.464 124.559 47.2864 122.528C48.1087 120.497 48.1087 106.905 48.1087 106.905L64.9243 104.331L66.5484 104.077L74.3981 102.856Z" fill="#5F5D7E"/>
<path opacity="0.02" d="M73.8619 104.54L70.9618 113.639L70.8922 113.817C70.5029 113.904 62.2846 115.771 60.511 116.344H60.3331L64.9244 104.331L65.0558 103.985L66.5484 104.079L73.8619 104.54Z" fill="black"/>
<path opacity="0.1" d="M54.6876 62.2742C54.6876 62.2742 62.2846 70.3916 67.0073 63.6933L71.5238 66.738L70.7015 71.4056L73.3696 106.714C73.3696 106.714 66.3886 106.51 61.4623 108.133C60.0902 108.614 58.6077 108.697 57.1892 108.374C55.7707 108.05 54.4752 107.333 53.4553 106.306L54.2777 75.2605L52.4293 65.724L54.6876 62.2742Z" fill="black"/>
<path d="M54.6875 61.6653C54.6875 61.6653 62.2846 69.7827 67.0073 63.0844L71.5238 66.1291L70.7015 70.7967L73.3722 106.115C73.3722 106.115 66.3912 105.911 61.4648 107.534C60.0928 108.015 58.6103 108.099 57.1917 107.775C55.7732 107.451 54.4778 106.734 53.4579 105.707L54.2802 74.6618L52.4319 65.1252L54.6875 61.6653Z" fill="#53526B"/>
<path d="M69.8507 97.814V99.0904H70.2658V98.2394H71.7738V99.0904H72.1889V97.8165L69.8507 97.814Z" fill="#E82127"/>
<path d="M70.222 97.4016H71.8151C71.9195 97.3769 72.015 97.3244 72.0914 97.2499C72.1677 97.1753 72.2219 97.0815 72.2482 96.9787H69.7914C69.8179 97.0814 69.8723 97.1751 69.9486 97.2496C70.0249 97.3241 70.1203 97.3767 70.2245 97.4016" fill="#E82127"/>
<path d="M68.5979 99.0908C68.6882 99.0562 68.7685 99.0003 68.8319 98.9279C68.8952 98.8555 68.9397 98.7688 68.9613 98.6755H67.1027V96.9787H66.6851V99.0908H68.5953" fill="#E82127"/>
<path d="M63.5916 97.394H65.0636C65.1684 97.3679 65.2648 97.3162 65.3441 97.2436C65.4234 97.1711 65.4829 97.08 65.5173 96.9787H63.1714V98.2169H65.0842V98.6552H63.5839C63.4693 98.6852 63.3626 98.7388 63.2706 98.8126C63.1786 98.8864 63.1035 98.9786 63.0502 99.0832H65.4915V97.8093H63.5813V97.3914" fill="#E82127"/>
<path d="M59.9593 97.3986H61.5525C61.6568 97.374 61.7524 97.3215 61.8287 97.2469C61.9051 97.1724 61.9593 97.0786 61.9855 96.9757H59.5288C59.5553 97.0784 59.6096 97.1721 59.6859 97.2466C59.7622 97.3211 59.8576 97.3737 59.9619 97.3986" fill="#E82127"/>
<path d="M59.9593 98.2318H61.5525C61.657 98.2074 61.7526 98.155 61.829 98.0804C61.9054 98.0058 61.9596 97.9118 61.9855 97.8089H59.5288C59.5553 97.9116 59.6096 98.0052 59.6859 98.0798C59.7622 98.1543 59.8576 98.2068 59.9619 98.2318" fill="#E82127"/>
<path d="M59.9593 99.0904H61.5525C61.6568 99.0657 61.7524 99.0132 61.8287 98.9387C61.9051 98.8641 61.9593 98.7703 61.9855 98.6675H59.5288C59.5553 98.7702 59.6096 98.8639 59.6859 98.9384C59.7622 99.0129 59.8576 99.0655 59.9619 99.0904" fill="#E82127"/>
<path d="M55.8167 96.9811C55.8438 97.0828 55.8981 97.1754 55.9738 97.2494C56.0496 97.3233 56.1439 97.3758 56.2472 97.4015H56.9174L56.9509 97.4142V99.0856H57.3685V97.4142L57.4072 97.4015H58.0775C58.1803 97.3751 58.2743 97.3223 58.3499 97.2485C58.4255 97.1747 58.48 97.0824 58.508 96.9811H55.8167Z" fill="#E82127"/>
<path d="M64.0324 92.8024L66.1231 81.1766C68.1158 81.1766 68.7448 81.3932 68.8376 82.2747C68.8376 82.2747 70.1756 81.783 70.8484 80.7817C69.1833 80.0429 67.3941 79.6153 65.5714 79.5205L64.0247 81.3779L62.4779 79.5205C60.6553 79.6152 58.8661 80.0428 57.201 80.7817C57.8738 81.783 59.2118 82.2747 59.2118 82.2747C59.302 81.3932 59.931 81.1766 61.9108 81.174L64.0195 92.8024" fill="#E82127"/>
<path d="M64.0324 78.9829C66.4577 78.9532 68.862 79.4299 71.0881 80.3817C71.2522 80.1085 71.3928 79.8221 71.5083 79.5256C66.7136 77.606 61.3512 77.606 56.5565 79.5256C56.6797 79.8201 56.8227 80.1061 56.9845 80.3817C59.2106 79.4299 61.6149 78.9532 64.0402 78.9829" fill="#E82127"/>
<path d="M70.4978 103.666C70.4978 103.666 70.4978 108.943 71.73 111.175C72.9623 113.407 80.1469 112.194 80.1469 112.194L78.711 104.685L70.4978 103.666Z" fill="#D39999"/>
<path d="M79.3657 115.842C78.283 116.862 73.7949 114.823 74.1042 113.611C74.3208 112.752 75.0787 109.679 75.5092 107.936L75.8082 106.711C75.8082 106.711 78.4377 105.898 79.3657 106.711C79.7034 107.007 79.9406 108.171 80.0515 109.577C80.2422 112.021 80.054 115.198 79.3657 115.842Z" fill="#FDC2CC"/>
<path d="M69.4692 65.3163L62.2846 70.7942C62.2846 70.7942 51.6096 70.1852 54.2777 65.1125C55.4395 62.8815 56.1405 60.4443 56.34 57.9429C56.4268 57.02 56.4268 56.0912 56.34 55.1683C56.34 55.1683 66.1953 46.2509 64.9631 56.3862C64.866 57.1641 64.8092 57.9465 64.7929 58.7302C64.6563 66.338 69.4692 65.3163 69.4692 65.3163Z" fill="#FDC2CC"/>
<path opacity="0.1" d="M64.9527 56.3887C64.8556 57.1667 64.7988 57.949 64.7826 58.7327C63.6766 59.4567 62.3789 59.8414 61.0523 59.8385C59.2143 59.8385 57.8609 58.0703 56.639 56.8957C56.7756 55.2116 56.3322 55.1708 56.3322 55.1708C56.3322 55.1708 66.1849 46.2407 64.9527 56.3887Z" fill="black"/>
<path d="M61.0524 59.4308C64.7939 59.4308 67.8271 56.4331 67.8271 52.7351C67.8271 49.0372 64.7939 46.0394 61.0524 46.0394C57.3108 46.0394 54.2776 49.0372 54.2776 52.7351C54.2776 56.4331 57.3108 59.4308 61.0524 59.4308Z" fill="#FDC2CC"/>
<path opacity="0.1" d="M56.2291 59.1276C56.2291 59.1276 55.1 59.2295 52.8418 62.2717C50.5835 65.3138 45.6417 65.7214 45.6417 65.7214C45.6417 65.7214 43.7933 64.9087 41.7413 74.0401C39.6893 83.1716 39.0732 89.2583 40.0992 90.2724C41.1252 91.2864 45.2318 92.7081 47.2838 92.7081C47.2838 92.7081 47.8999 105.491 46.8739 107.722C45.8479 109.954 47.0802 111.376 47.0802 111.376L56.1028 110.767C56.1028 110.767 59.1834 106.912 59.7995 100.217C60.4156 93.5209 62.4676 74.4452 61.4416 72.2133C60.4156 69.9814 55.8991 64.2997 56.1028 63.6908C56.3065 63.0819 56.2291 59.1276 56.2291 59.1276Z" fill="black"/>
<path d="M56.2111 59.0665C56.2111 59.0665 54.6927 59.0257 52.4345 62.0704C50.1762 65.115 45.2499 65.5201 45.2499 65.5201C45.2499 65.5201 43.4015 64.7074 41.3495 73.8388C39.2975 82.9703 38.6814 89.057 39.7125 90.0634C40.7437 91.0698 44.8451 92.4992 46.8971 92.4992C46.8971 92.4992 47.5133 105.282 46.4873 107.514C45.4613 109.745 46.6935 111.167 46.6935 111.167L55.7161 110.558C55.7161 110.558 58.7967 106.703 59.4128 100.008C60.029 93.3119 62.081 74.2363 61.055 72.0044C60.029 69.7725 55.5125 64.0908 55.7161 63.4819C55.9198 62.8729 56.2111 59.0665 56.2111 59.0665Z" fill="#D39999"/>
<path d="M50.7975 85.2022C50.7975 85.2022 61.0704 73.5586 59.6268 81.5486C58.5956 87.2302 54.7004 90.2749 52.8521 90.8838C51.0037 91.4928 50.7975 85.2022 50.7975 85.2022Z" fill="#FDC2CC"/>
<path opacity="0.1" d="M80.0515 109.577C79.0693 108.836 77.2158 107.682 75.5092 107.936L75.8083 106.711C75.8083 106.711 78.4377 105.898 79.3658 106.711C79.706 107.007 79.9406 108.171 80.0515 109.577Z" fill="black"/>
<path opacity="0.1" d="M64.8496 60.3455C64.8496 60.3455 70.0853 63.6933 70.7014 65.115C71.3175 66.5367 73.5758 67.5508 73.5758 67.5508C73.5758 67.5508 77.886 69.7827 77.886 77.6963L80.1443 88.8558L69.8739 103.057C69.8739 103.057 68.6417 88.8532 68.0256 85.4035C67.4094 81.9537 66.5897 75.4669 66.5897 75.4669C66.5897 75.4669 63.5091 71.612 63.9216 70.598C64.334 69.5839 64.8496 60.3455 64.8496 60.3455Z" fill="black"/>
<path d="M64.8316 60.2843C64.8316 60.2843 70.2916 63.2882 70.9051 64.7074C71.5187 66.1265 73.7821 67.1329 73.7821 67.1329C73.7821 67.1329 78.0923 69.3648 78.0923 77.2784L80.3505 88.4379L80.7604 109.743C80.7604 109.743 77.0637 106.293 74.3956 107.916C71.7275 109.539 70.0853 102.64 70.0853 102.64C70.0853 102.64 68.8531 88.4354 68.237 84.9856C67.6209 81.5358 66.8011 75.049 66.8011 75.049C66.8011 75.049 63.7205 71.2095 64.133 70.1903C64.5454 69.1712 64.8316 60.2843 64.8316 60.2843Z" fill="#D39999"/>
<path opacity="0.1" d="M66.9996 44.5922C66.652 44.1552 66.2501 43.7631 65.8035 43.4253C65.0971 42.8444 64.316 42.238 63.4395 42.289C62.9437 42.3542 62.4674 42.5227 62.0423 42.7833C59.8597 43.9196 57.6831 45.0678 55.5125 46.2279C54.7108 46.656 53.8833 47.1095 53.3239 47.8789C52.7644 48.6484 52.5376 49.6369 52.3803 50.6051C52.2487 51.2609 52.2175 51.9325 52.2875 52.5975C52.3515 53.2495 52.6717 53.8505 53.1795 54.2715C53.7647 54.6918 54.5664 54.6944 55.0562 55.2447C55.3398 55.5632 55.4635 56.0091 55.6646 56.3963C55.8657 56.7836 56.2137 57.1607 56.6107 57.0919C57.0077 57.0231 57.2474 56.6078 57.3041 56.1874C57.3294 55.7614 57.3043 55.3338 57.2294 54.9135C57.152 54.1492 57.25 53.3389 57.6985 52.7708C58.0079 52.3835 58.4513 52.1491 58.7503 51.7516C59.467 50.7937 59.1396 49.2038 59.9259 48.3044C60.1542 48.0693 60.4415 47.8983 60.7585 47.8088C61.0755 47.7193 61.4109 47.7145 61.7304 47.7949C62.3671 47.9273 62.9497 48.2688 63.5349 48.5592C64.3255 48.9534 65.1536 49.2691 66.0071 49.5019C66.7238 49.6955 67.5539 50.1592 67.7988 49.2165C68.1726 47.8331 67.8116 45.7158 66.9996 44.5922Z" fill="black"/>
<path d="M66.7934 44.3884C66.4458 43.9514 66.0439 43.5593 65.5972 43.2215C64.8909 42.6406 64.1098 42.0342 63.2333 42.0852C62.7374 42.1504 62.2612 42.3189 61.8361 42.5794C59.6552 43.7158 57.8429 42.6406 55.3062 46.0241C54.7649 46.7477 53.677 46.9057 53.1176 47.6751C52.5582 48.4446 52.3314 49.4331 52.1741 50.4013C52.0425 51.0571 52.0112 51.7287 52.0813 52.3937C52.1452 53.0456 52.4655 53.6467 52.9733 54.0676C53.5584 54.488 54.3602 54.4906 54.85 55.0409C55.1335 55.3594 55.2573 55.8053 55.4583 56.1925C55.6594 56.5798 56.0074 56.9569 56.4044 56.8881C56.8014 56.8193 57.0412 56.404 57.0979 55.9836C57.1232 55.5575 57.0981 55.13 57.0231 54.7097C56.9458 53.9453 57.0438 53.1351 57.4923 52.5669C57.8017 52.1797 58.2451 51.9453 58.5441 51.5478C59.2607 50.5898 58.9334 49 59.7196 48.1006C59.9479 47.8655 60.2352 47.6945 60.5523 47.605C60.8693 47.5154 61.2046 47.5106 61.5241 47.591C62.1609 47.7235 62.7435 48.0649 63.3287 48.3554C64.1192 48.7495 64.9473 49.0653 65.8009 49.2981C66.5175 49.4917 67.3476 49.9554 67.5925 49.0127C67.9689 47.6292 67.6183 45.512 66.7934 44.3884Z" fill="#865A61"/>
<path d="M48.3227 74.4478C48.3227 74.4478 48.1165 81.9562 47.0905 82.9703C46.0645 83.9843 47.7066 85.2022 47.7066 85.2022L51.8132 84.183C51.8132 84.183 50.782 90.8787 55.0974 90.0685C55.0974 90.0685 52.2231 92.7055 49.3487 93.1132C46.4744 93.5209 46.6729 92.5068 46.6729 92.5068L42.3626 87.4341L48.3227 74.4478Z" fill="#D39999"/>
<path opacity="0.1" d="M48.2892 75.3599C48.2892 75.3599 45.5514 82.2594 47.606 85.1003L52.1225 84.0811C52.1225 84.0811 48.0159 85.299 48.632 82.8633C49.2482 80.4275 48.2892 75.3599 48.2892 75.3599Z" fill="black"/>
<path opacity="0.1" d="M46.7837 92.4049C46.7837 92.4049 52.7386 92.81 54.3808 91.5921C52.2197 93.2281 49.6659 94.2816 46.9693 94.6496L46.7837 92.4049Z" fill="black"/>
<path opacity="0.1" d="M72.4518 79.4186C72.4518 79.4186 75.5324 88.7538 75.3262 90.173C75.12 91.5921 74.7101 107.218 74.7101 107.218L74.094 107.014L74.3002 89.9692L72.4518 79.4186Z" fill="black"/>
<path d="M202.151 105.817C202.151 105.817 206.662 114.569 202.986 119.356C199.31 124.143 203.321 137.191 203.321 137.191" stroke="#6C63FF" stroke-miterlimit="10"/>
<path d="M203.486 103.093C203.486 104.78 202.234 106.15 202.234 106.15C202.234 106.15 200.981 104.782 200.981 103.093C200.981 101.404 202.234 100.036 202.234 100.036C202.234 100.036 203.486 101.406 203.486 103.093Z" fill="#379237"/>
<path d="M204.489 105.817C204.489 105.817 199.978 114.569 203.654 119.356C207.33 124.143 203.319 137.191 203.319 137.191" stroke="#6C63FF" stroke-miterlimit="10"/>
<path d="M203.151 103.093C203.151 104.78 204.404 106.15 204.404 106.15C204.404 106.15 205.657 104.782 205.657 103.093C205.657 101.404 204.404 100.036 204.404 100.036C204.404 100.036 203.151 101.406 203.151 103.093Z" fill="#379237"/>
<path opacity="0.1" d="M203.151 103.093C203.151 104.78 204.404 106.15 204.404 106.15C204.404 106.15 205.657 104.782 205.657 103.093C205.657 101.404 204.404 100.036 204.404 100.036C204.404 100.036 203.151 101.406 203.151 103.093Z" fill="black"/>
<path d="M206.327 105.817C206.327 105.817 210.839 114.569 207.163 119.356C203.486 124.143 207.498 137.191 207.498 137.191" stroke="#6C63FF" stroke-miterlimit="10"/>
<path d="M207.663 103.093C207.663 104.78 206.41 106.15 206.41 106.15C206.41 106.15 205.157 104.782 205.157 103.093C205.157 101.404 206.41 100.036 206.41 100.036C206.41 100.036 207.663 101.406 207.663 103.093Z" fill="#379237"/>
<path d="M206.961 110.105C205.778 111.32 203.914 111.447 203.914 111.447C203.914 111.447 203.971 109.603 205.154 108.39C206.338 107.177 208.201 107.047 208.201 107.047C208.201 107.047 208.145 108.889 206.961 110.105Z" fill="#379237"/>
<path d="M207.077 116.143C205.894 117.358 204.03 117.486 204.03 117.486C204.03 117.486 204.087 115.641 205.27 114.428C206.454 113.216 208.307 113.083 208.307 113.083C208.307 113.083 208.261 114.925 207.077 116.143Z" fill="#379237"/>
<path d="M200.661 119.463C201.78 120.737 201.741 122.581 201.741 122.581C201.741 122.581 199.888 122.36 198.769 121.086C197.65 119.812 197.689 117.967 197.689 117.967C197.689 117.967 199.542 118.189 200.661 119.463Z" fill="#379237"/>
<path d="M201.7 106.589C203.123 107.521 203.584 109.31 203.584 109.31C203.584 109.31 201.736 109.585 200.316 108.663C198.895 107.74 198.431 105.942 198.431 105.942C198.431 105.942 200.277 105.656 201.7 106.589Z" fill="#379237"/>
<path opacity="0.1" d="M201.7 106.589C203.123 107.521 203.584 109.31 203.584 109.31C203.584 109.31 201.736 109.585 200.316 108.663C198.895 107.74 198.431 105.942 198.431 105.942C198.431 105.942 200.277 105.656 201.7 106.589Z" fill="black"/>
<path d="M208.665 105.817C208.665 105.817 204.154 114.569 207.83 119.356C211.506 124.143 207.495 137.191 207.495 137.191" stroke="#6C63FF" stroke-miterlimit="10"/>
<path d="M207.33 103.093C207.33 104.78 208.583 106.15 208.583 106.15C208.583 106.15 209.836 104.782 209.836 103.093C209.836 101.404 208.583 100.036 208.583 100.036C208.583 100.036 207.33 101.406 207.33 103.093Z" fill="#379237"/>
<path opacity="0.1" d="M207.33 103.093C207.33 104.78 208.583 106.15 208.583 106.15C208.583 106.15 209.836 104.782 209.836 103.093C209.836 101.404 208.583 100.036 208.583 100.036C208.583 100.036 207.33 101.406 207.33 103.093Z" fill="black"/>
<path d="M207.691 110.235C206.492 111.437 206.402 113.292 206.402 113.292C206.402 113.292 208.266 113.188 209.465 111.985C210.663 110.782 210.754 108.928 210.754 108.928C210.754 108.928 208.887 109.032 207.691 110.235Z" fill="#379237"/>
<path opacity="0.1" d="M207.691 110.235C206.492 111.437 206.402 113.292 206.402 113.292C206.402 113.292 208.266 113.188 209.465 111.985C210.663 110.782 210.754 108.928 210.754 108.928C210.754 108.928 208.887 109.032 207.691 110.235Z" fill="black"/>
<path d="M210.039 118.599C208.841 119.802 208.75 121.657 208.75 121.657C208.75 121.657 210.614 121.552 211.813 120.35C213.012 119.147 213.102 117.292 213.102 117.292C213.102 117.292 211.238 117.392 210.039 118.599Z" fill="#379237"/>
<path d="M206.582 116.757C206.582 116.757 209.297 112.528 213.11 112.426" stroke="#6C63FF" stroke-miterlimit="10"/>
<path d="M204.469 114.202C204.469 114.202 201.754 109.972 197.941 109.87" stroke="#6C63FF" stroke-miterlimit="10"/>
<path d="M204.115 120.24C204.115 120.24 206.83 116.011 210.643 115.909" stroke="#6C63FF" stroke-miterlimit="10"/>
<path d="M212.983 113.098C213.372 113.098 213.687 112.787 213.687 112.403C213.687 112.019 213.372 111.707 212.983 111.707C212.595 111.707 212.28 112.019 212.28 112.403C212.28 112.787 212.595 113.098 212.983 113.098Z" fill="#379237"/>
<path d="M198.006 110.602C198.394 110.602 198.71 110.29 198.71 109.906C198.71 109.522 198.394 109.21 198.006 109.21C197.617 109.21 197.302 109.522 197.302 109.906C197.302 110.29 197.617 110.602 198.006 110.602Z" fill="#379237"/>
<path d="M206.113 121.634C206.113 121.634 203.399 117.404 199.586 117.302" stroke="#6C63FF" stroke-miterlimit="10"/>
<path d="M199.65 118.034C200.039 118.034 200.354 117.722 200.354 117.338C200.354 116.954 200.039 116.642 199.65 116.642C199.262 116.642 198.947 116.954 198.947 117.338C198.947 117.722 199.262 118.034 199.65 118.034Z" fill="#379237"/>
<path d="M210.694 116.64C211.083 116.64 211.398 116.329 211.398 115.944C211.398 115.56 211.083 115.249 210.694 115.249C210.306 115.249 209.99 115.56 209.99 115.944C209.99 116.329 210.306 116.64 210.694 116.64Z" fill="#379237"/>
<path d="M221.122 132.103C221.122 132.103 214.579 130.808 212.834 129.084C211.089 127.359 203.236 124.35 202.365 126.497C201.494 128.645 190.587 135.991 197.996 137.282C205.404 138.574 215.445 139.007 217.626 138.144C219.807 137.28 221.122 132.103 221.122 132.103Z" fill="#A8A8A8"/>
<path opacity="0.2" d="M197.995 136.482C205.412 137.777 215.445 138.207 217.626 137.344C219.286 136.686 220.441 133.522 220.898 132.064L221.117 132.11C221.117 132.11 219.807 137.285 217.626 138.146C215.445 139.007 205.412 138.577 197.995 137.285C195.856 136.91 195.242 136.034 195.474 134.926C195.662 135.647 196.407 136.205 197.995 136.482Z" fill="black"/>
<path d="M29.2127 153.673C29.2127 153.673 31.373 156.475 28.2151 160.679C25.0572 164.883 22.4535 168.453 23.5078 171.085C23.5078 171.085 28.2718 163.255 32.149 163.146C36.0261 163.036 33.4766 158.381 29.2127 153.673Z" fill="#379237"/>
<path opacity="0.1" d="M29.2127 153.673C29.401 153.943 29.5494 154.238 29.6536 154.549C33.4379 158.942 35.4513 163.041 31.8164 163.146C28.4291 163.242 24.3663 169.227 23.3918 170.741C23.424 170.857 23.4627 170.972 23.5079 171.085C23.5079 171.085 28.2718 163.255 32.149 163.146C36.0261 163.036 33.4766 158.381 29.2127 153.673Z" fill="black"/>
<path d="M33.2291 157.229C33.2291 158.213 33.1183 159.013 32.9714 159.013C32.8244 159.013 32.7136 158.215 32.7136 157.229C32.7136 156.243 32.8528 156.72 32.9894 156.72C33.126 156.72 33.2291 156.249 33.2291 157.229Z" fill="#FFD037"/>
<path d="M34.6057 158.404C33.7318 158.875 32.9713 159.168 32.9069 159.038C32.8424 158.908 33.4946 158.44 34.3685 157.971C35.2424 157.502 34.897 157.844 34.964 157.971C35.031 158.098 35.4796 157.933 34.6057 158.404Z" fill="#FFD037"/>
<path d="M17.8004 153.673C17.8004 153.673 15.6401 156.475 18.798 160.679C21.9559 164.883 24.5596 168.453 23.5052 171.082C23.5052 171.082 18.7413 163.253 14.8641 163.143C10.987 163.033 13.5365 158.381 17.8004 153.673Z" fill="#379237"/>
<path opacity="0.1" d="M17.8004 153.673C17.6121 153.943 17.4637 154.238 17.3595 154.549C13.5752 158.942 11.5618 163.041 15.1967 163.146C18.584 163.242 22.6468 169.227 23.6213 170.741C23.5891 170.857 23.5504 170.972 23.5052 171.085C23.5052 171.085 18.7413 163.255 14.8641 163.146C10.987 163.036 13.5365 158.381 17.8004 153.673Z" fill="black"/>
<path d="M13.784 157.229C13.784 158.213 13.8948 159.013 14.0418 159.013C14.1887 159.013 14.2996 158.215 14.2996 157.229C14.2996 156.243 14.1604 156.72 14.0237 156.72C13.8871 156.72 13.784 156.249 13.784 157.229Z" fill="#FFD037"/>
<path d="M12.4074 158.404C13.2813 158.875 14.0418 159.168 14.1063 159.038C14.1707 158.908 13.5185 158.44 12.6446 157.971C11.7707 157.502 12.1161 157.844 12.0491 157.971C11.9821 158.098 11.5335 157.933 12.4074 158.404Z" fill="#FFD037"/>
<path d="M14.4724 170.715C14.4724 170.715 20.5124 170.532 22.3324 169.25C24.1524 167.969 31.6128 166.448 32.0742 168.486C32.5357 170.524 41.151 178.705 34.3325 178.759C27.5139 178.812 18.4887 177.709 16.6713 176.616C14.8539 175.523 14.4724 170.715 14.4724 170.715Z" fill="#A8A8A8"/>
<path opacity="0.2" d="M34.4562 178.053C27.6377 178.106 18.6124 177.003 16.795 175.91C15.4107 175.077 14.859 172.088 14.676 170.71H14.4749C14.4749 170.71 14.8564 175.525 16.6739 176.619C18.4913 177.712 27.5165 178.817 34.335 178.761C36.3046 178.746 36.9825 178.053 36.9465 177.029C36.6706 177.655 35.9205 178.04 34.4562 178.053Z" fill="black"/>
</g>
<defs>
<linearGradient id="paint0_linear_21_11" x1="130.62" y1="152.093" x2="130.62" y2="61.7519" gradientUnits="userSpaceOnUse">
<stop stop-color="#808080" stop-opacity="0.25"/>
<stop offset="0.54" stop-color="#808080" stop-opacity="0.12"/>
<stop offset="1" stop-color="#808080" stop-opacity="0.1"/>
</linearGradient>
<linearGradient id="paint1_linear_21_11" x1="150.291" y1="129.185" x2="167.561" y2="64.2886" gradientUnits="userSpaceOnUse">
<stop stop-color="#808080" stop-opacity="0.25"/>
<stop offset="0.54" stop-color="#808080" stop-opacity="0.12"/>
<stop offset="1" stop-color="#808080" stop-opacity="0.1"/>
</linearGradient>
<linearGradient id="paint2_linear_21_11" x1="59.9877" y1="181.872" x2="59.9877" y2="39.4456" gradientUnits="userSpaceOnUse">
<stop stop-color="#808080" stop-opacity="0.25"/>
<stop offset="0.54" stop-color="#808080" stop-opacity="0.12"/>
<stop offset="1" stop-color="#808080" stop-opacity="0.1"/>
</linearGradient>
<clipPath id="clip0_21_11">
<rect width="264" height="200" fill="white"/>
</clipPath>
</defs>
</svg>
